Coordinates
version=1
nRows=49
nColumns=12
inDegrees=yes

Units are S.I. units (second, meters, Newtons, ...)
Angles are in degrees

endheader
time	SC_y	SC_z	SC_x	AC_y	AC_z	AC_x	GH_y	GH_z	GH_yy	EL_x	PS_y
       0.0              -48.37          39.49          7.564          51.37          0.593           1.16          62.88           21.5         -134.8          71.56          51.84
   0.01739              -48.36          39.49          7.565          51.37         0.5916          1.158           62.9           21.5         -134.8          71.56          51.85
   0.03479              -48.36          39.49          7.567          51.37         0.5902          1.156          62.91           21.5         -134.8          71.57          51.85
   0.05218              -48.36          39.49          7.569          51.37         0.5886          1.153          62.93          21.51         -134.7          71.58          51.86
   0.06957              -48.36          39.49           7.57          51.37          0.587           1.15          62.95          21.51         -134.7          71.58          51.87
   0.08697              -48.36          39.49          7.572          51.36         0.5852          1.147          62.97          21.51         -134.7          71.59          51.87
    0.1044              -48.36          39.48          7.574          51.36         0.5834          1.144           63.0          21.52         -134.7           71.6          51.88
    0.1218              -48.35          39.48          7.576          51.36         0.5814           1.14          63.02          21.52         -134.6          71.61          51.89
    0.1391              -48.35          39.48          7.578          51.36         0.5793          1.137          63.05          21.53         -134.6          71.61           51.9
    0.1565              -48.35          39.48           7.58          51.35          0.577          1.133          63.07          21.53         -134.6          71.62           51.9
    0.1739              -48.35          39.48          7.583          51.35         0.5745          1.128           63.1          21.54         -134.5          71.63          51.91
    0.1913              -48.34          39.47          7.586          51.35         0.5719          1.124          63.13          21.54         -134.5          71.64          51.93
    0.2087              -48.34          39.47          7.588          51.35          0.569          1.119          63.17          21.55         -134.5          71.66          51.94
    0.2261              -48.34          39.47          7.592          51.34         0.5659          1.114          63.21          21.56         -134.4          71.67          51.95
    0.2435              -48.33          39.46          7.595          51.34         0.5626          1.108          63.25          21.56         -134.4          71.68          51.96
    0.2609              -48.33          39.46          7.599          51.33          0.559          1.102          63.29          21.57         -134.3           71.7          51.98
    0.2783              -48.32          39.46          7.603          51.33         0.5551          1.095          63.34          21.58         -134.3          71.71          51.99
    0.2957              -48.32          39.45          7.607          51.32         0.5508          1.087          63.39          21.59         -134.2          71.73          52.01
    0.3131              -48.31          39.45          7.612          51.32         0.5461          1.079          63.45           21.6         -134.1          71.75          52.03
    0.3305              -48.31          39.44          7.617          51.31          0.541           1.07          63.51          21.61         -134.1          71.77          52.05
    0.3479               -48.3          39.44          7.623          51.31         0.5354          1.061          63.57          21.62         -134.0          71.79          52.07
    0.3653              -48.29          39.43          7.629           51.3         0.5292           1.05          63.65          21.64         -133.9          71.82          52.09
    0.3826              -48.29          39.43          7.636          51.29         0.5224          1.038          63.73          21.65         -133.8          71.84          52.12
       0.4              -48.28          39.42          7.644          51.28         0.5148          1.025          63.82          21.67         -133.7          71.88          52.15
    0.4174              -48.27          39.41          7.652          51.27         0.5064           1.01          63.92          21.69         -133.6          71.91          52.18
    0.4348              -48.26           39.4          7.662          51.26          0.497         0.9942          64.04          21.71         -133.4          71.95          52.22
    0.4522              -48.25          39.39          7.672          51.25         0.4865         0.9759          64.16          21.73         -133.3          71.99          52.26
    0.4696              -48.23          39.38          7.684          51.24         0.4747         0.9555          64.31          21.76         -133.1          72.04          52.31
     0.487              -48.22          39.37          7.698          51.22         0.4614         0.9323          64.47          21.79         -132.9          72.09          52.36
    0.5044               -48.2          39.36          7.713          51.21         0.4462          0.906          64.65          21.82         -132.7          72.15          52.42
    0.5218              -48.18          39.34          7.731          51.19         0.4289          0.876          64.86          21.86         -132.5          72.22          52.49
    0.5392              -48.16          39.32          7.751          51.16          0.409         0.8416           65.1           21.9         -132.2           72.3          52.57
    0.5566              -48.13           39.3          7.775          51.14         0.3861         0.8018          65.38          21.95         -131.9           72.4          52.66
     0.574               -48.1          39.28          7.802          51.11         0.3594         0.7557           65.7          22.01         -131.5           72.5          52.77
    0.5914              -48.07          39.25          7.833          51.07         0.3282         0.7016          66.08          22.08         -131.1          72.63          52.89
    0.6088              -48.03          39.22          7.871          51.03         0.2915         0.6379          66.52          22.16         -130.5          72.78          53.03
    0.6262              -47.98          39.18          7.915          50.98         0.2478         0.5622          67.05          22.26         -129.9          72.95          53.21
    0.6435              -47.92          39.13          7.969          50.92         0.1954         0.4714          67.68          22.38         -129.2          73.17          53.41
    0.6609              -47.85          39.07          8.033          50.85         0.1321         0.3616          68.44          22.52         -128.3          73.42          53.67
    0.6783              -47.76           39.0          8.112          50.76        0.05468         0.2275          69.38          22.69         -127.2          73.74          53.97
    0.6957              -47.66          38.91          8.209          50.65       -0.04084        0.06199          70.53           22.9         -125.8          74.12          54.35
    0.7131              -47.52           38.8           8.33          50.51        -0.1599        -0.1444          71.97          23.16         -124.1           74.6          54.82
    0.7305              -47.36          38.67          8.483          50.34          -0.31        -0.4045          73.78          23.49         -122.0          75.21          55.41
    0.7479              -47.14          38.49          8.677          50.12        -0.5007         -0.735          76.08          23.91         -119.3          75.98          56.17
    0.7653              -46.87          38.27          8.925          49.85        -0.7449         -1.158          79.03          24.45         -115.9          76.97          57.13
    0.7827              -46.52          37.98          9.244          49.49         -1.058         -1.701          82.81          25.14         -111.4          78.24          58.37
    0.8001              -46.07          37.62          9.651          49.03         -1.458         -2.395          87.64          26.03         -105.8          79.85          59.96
    0.8175              -45.51          37.15          10.16          48.46         -1.962         -3.267          93.71          27.14         -98.66          81.89          61.95
    0.8349              -44.83          36.59          10.79          47.76         -2.575         -4.329          101.1          28.49         -89.98          84.37          64.38
